<svg xmlns="http://www.w3.org/2000/svg" viewBox="0 0 64 64" role="img" aria-label="RecruitPro Admin">
  <defs>
    <linearGradient id="bg" x1="10" y1="8" x2="54" y2="58" gradientUnits="userSpaceOnUse">
      <stop stop-color="#4f46e5"/>
      <stop offset="1" stop-color="#7c3aed"/>
    </linearGradient>
  </defs>
  <rect width="64" height="64" rx="16" fill="url(#bg)"/>
  <path fill="#fff" d="M17 18h17c7 0 12 4 12 10 0 4-2 7-6 9l8 10H37l-7-9h-4v9h-9V18Zm9 8v5h8c2 0 4-1 4-3s-2-2-4-2h-8Z"/>
  <circle cx="47" cy="45" r="10" fill="#ede9fe"/>
  <path fill="#5b21b6" d="M47 38l7 3v5c0 4-3 7-7 9-4-2-7-5-7-9v-5l7-3Zm-3 8 2 2 5-5 2 2-7 7-4-4 2-2Z"/>
</svg>
